<svg xmlns="http://www.w3.org/2000/svg" width="512" height="512" version="1.0" viewBox="263 256 512 512">
  <g fill="#633C8A">
    <path
      d="M506.5 277.7c-30.7 1.6-62.8 10.1-92.5 24.6-37 18-67.6 45.2-92 81.6-6.2 9.2-20.1 35.6-22 41.6-.5 1.6-2.3 7-4 12-7.4 21.9-10.1 38.2-10.7 66-.6 26.2.8 38.9 6.6 61.8 7 27.3 16.6 48.9 32.2 72.2 29.6 44.4 68.1 73.8 119.9 91.7 50.8 17.5 106.9 15.8 156.4-4.6 9.5-4 29.4-13.7 33.5-16.5 1.4-1 6.9-4.6 12.1-8.1 5.2-3.5 12.2-8.6 15.5-11.2 9.5-7.8 27.9-26.4 36-36.2 24.3-30.1 41.5-69.2 48.2-109.6 2.5-15 2.5-54.3 0-69-7-41.3-23.1-76.9-49.7-110.4-20.2-25.4-51.2-49.5-83-64.4-32.3-15.1-72.7-23.3-106.5-21.5zm41.5 59.1c18.4 3.8 43.2 15 58.3 26.3 17.2 12.9 32.3 30.3 41.5 47.9 4.5 8.5 9.2 20.2 9.2 23 0 .6-3.6 1-9.5 1H638l-4.3-8.8c-7.9-16-17.6-28.6-31.2-40.3-41.5-35.8-97-42.8-145.8-18.3-25.9 13.1-50.7 39.4-59.7 63.5l-2.2 5.9h-9.3c-5 0-9.4-.3-9.7-.6-2-2 7.8-25.3 15.3-36.5 22.3-33.3 57.4-55.8 99.8-64 13-2.5 42.9-2 57.1.9zM435.6 451.5c26 3.9 50.2 14.6 68.2 30.2l6.2 5.5v73.7c0 40.6-.3 77.3-.7 81.5l-.6 7.8-9.1-9c-19.7-19.5-44.1-31.2-70.2-33.7-8-.8-10.9.2-12.4 4.1-1.3 3.2 1.2 8.2 4.3 8.8 1.2.3 7.1 1.4 13.1 2.6 20.9 4 40.4 14.2 55.5 29 12.6 12.3 12.6 12.3 11.1 16-.7 1.6-1.7 3-2.1 3-.5 0-3.7-1.4-7.1-3.1-28.6-14.5-71.2-21.4-99.8-16.4-4.7.8-9.1 1.5-9.7 1.5-1 0-1.3-20.4-1.3-98.9v-98.9l2.9-1.2c9.3-3.8 34.5-5 51.7-2.5zm205.4.8c3 .8 6.7 1.9 8.3 2.5l2.7 1.2v97.2c0 54.7-.4 97.9-.9 98.7-.8 1.2-2.4 1.2-10.8-.3-12.7-2.1-36.1-2.1-50.1 0-15.3 2.2-33 7.7-46 14.1-12.1 6-13.2 6-13.2.2 0-3.5 14.7-19 24.4-25.8 15-10.3 32.6-17 49.6-18.8 4.8-.4 7-1.2 8.7-2.9 2.8-2.8 3-6.7.3-9.4-6.6-6.6-45.2 4.1-65.8 18.2-2.6 1.8-9 7.4-14.3 12.5-5.3 5.1-9.8 9.3-10.2 9.3-.3 0-.6-36.6-.7-81.3l-.1-81.2 3.3-3.1c4.3-3.9 12.5-10.4 13.2-10.4.3 0 2.9-1.5 5.8-3.3 13.3-8.3 33.5-15.5 51.2-18.2 11.1-1.7 36.6-1.2 44.6.8zM368 526c0 48.7.9 44.5-8.6 41.3-3.6-1.2-6.8-3.5-12.1-8.8-6.4-6.3-7.4-7.9-9.3-14.3-1.9-6.3-2.1-8.9-1.8-20.9.4-12.5.6-14.3 3.1-19.3 4.5-9.1 12.2-16.1 21.6-19.5 7.7-2.9 7.1-6.6 7.1 41.5zm306.5-39.9c5.6 2.6 13.9 9.9 17.1 15.1 4.2 6.6 5.7 14.9 5.1 27.8-.5 13.3-2.5 19.6-8.2 26.6-5.1 6.2-9.5 9.3-17 12L665 570v-40.4c0-22.2-.3-41.8-.7-43.6-.6-3.3-.6-3.3 2.5-2.7 1.7.3 5.1 1.6 7.7 2.8zM523.9 665.6c8.7 7.3 3.8 21.4-7.4 21.4-8.3 0-14.2-8.4-11.5-16.4 2.4-7.4 12.8-10.2 18.9-5z" />
    <path
      d="M421.5 502.5c-3.1 3-3.4 8.4-.7 10.8 1.6 1.4 4.4 1.7 18 1.7h16.1l2.1-2.7c2.6-3.3 2.1-7.9-1.1-10.6-1.8-1.4-4.3-1.7-17.1-1.7-14.5 0-15 .1-17.3 2.5zM576.4 502.3c-3.3 2.8-3.7 7.6-.9 10.7 1.7 1.8 3 2 17.7 2 14.5 0 16-.2 17.8-2 2.8-2.8 2.6-7.5-.5-10.5-2.3-2.4-2.8-2.5-16.9-2.5-13.8 0-14.6.1-17.2 2.3z" />
  </g>
</svg>
